<?xml version="1.0" encoding="utf-8"?>
<!-- Generator: Adobe Illustrator 26.5.0, SVG Export Plug-In . SVG Version: 6.00 Build 0)  -->
<svg version="1.1" id="Layer_1" xmlns="http://www.w3.org/2000/svg" xmlns:xlink="http://www.w3.org/1999/xlink" x="0px" y="0px"
	 viewBox="0 0 132.8 93.4" style="enable-background:new 0 0 132.8 93.4;" xml:space="preserve">
<style type="text/css">
	.st0{fill:#FFFFFF;}
</style>
<g>
	<path class="st0" d="M129.8,80.9c-52.2-2-55.6-56.3-55.7-69.8c0-1.7,1.4-3,3.1-2.9c7.2,0.4,12,2.3,15.4,5.2
		C93.4,1.6,103.1-3,112.3,2c11.7,6.3,10.7,22.1-9.5,27.6c3.1,6.5,6.8,13.2,15,18.1c12.9,7.6,14.8,23.6,14.9,30.3
		C132.8,79.6,131.4,81,129.8,80.9z"/>
	<path class="st0" d="M3,80.9c-1.7,0.1-3.1-1.3-3-3c0.2-6.7,2-22.7,14.9-30.3c8.3-4.8,11.9-11.6,15-18.1C9.8,24.1,8.8,8.3,20.5,2
		c9.1-5,18.8-0.3,19.7,11.4c3.5-2.8,8.3-4.7,15.4-5.2c1.7-0.1,3.1,1.2,3.1,2.9C58.7,24.6,55.2,78.9,3,80.9z"/>
	<path class="st0" d="M62.5,92.3c-9.5-5.5-11.7-14-12.1-18.5c-0.2-1.9,0.7-3.8,2.3-4.8c2.4-1.5,6.8-3.4,13.8-3.4
		c7,0,11.4,1.9,13.8,3.4c1.6,1,2.5,2.9,2.3,4.8c-0.5,4.4-2.6,13-12.1,18.5C68,93.7,64.9,93.7,62.5,92.3z"/>
</g>
</svg>
